PathFileType	4	(X/Y/Z)	C:/Users/opensim2020/Desktop/walking_exp_matlab/subject02_walking05_straight_03.trc																																																																																																																												
DataRate	CameraRate	NumFrames	NumMarkers	Units	OrigDataRate	OrigDataStartFrame	OrigNumFrames																																																																																																																								
100	100	4	42	mm	100	2245	224																																																																																																																								
Frame#	Time	LFHD			RFHD			LBHD			RBHD			C7			T10			CLAV			STRN			RBAK			LSHO			LUPA			LELB			LFRM			LWRA			LWRB			LFIN			RSHO			RUPA			RELB			RFRM			RWRA			RWRB			RFIN			LASI			RASI			LPSI			RPSI			LTHI			LKNE			LTIB			LANK			LHEE			LTOE			RTHI			RKNE			RTIB			RANK			RHEE			RTOE			*39			*40			*41		
		X1	Y1	Z1	X2	Y2	Z2	X3	Y3	Z3	X4	Y4	Z4	X5	Y5	Z5	X6	Y6	Z6	X7	Y7	Z7	X8	Y8	Z8	X9	Y9	Z9	X10	Y10	Z10	X11	Y11	Z11	X12	Y12	Z12	X13	Y13	Z13	X14	Y14	Z14	X15	Y15	Z15	X16	Y16	Z16	X17	Y17	Z17	X18	Y18	Z18	X19	Y19	Z19	X20	Y20	Z20	X21	Y21	Z21	X22	Y22	Z22	X23	Y23	Z23	X24	Y24	Z24	X25	Y25	Z25	X26	Y26	Z26	X27	Y27	Z27	X28	Y28	Z28	X29	Y29	Z29	X30	Y30	Z30	X31	Y31	Z31	X32	Y32	Z32	X33	Y33	Z33	X34	Y34	Z34	X35	Y35	Z35	X36	Y36	Z36	X37	Y37	Z37	X38	Y38	Z38	X39	Y39	Z39	X40	Y40	Z40	X41	Y41	Z41	X42	Y42	Z42
																																																																																																																															
169	1.68	546.03778	1747.99805	-1116.34302	522.10809	1732.87671	-974.14624	434.70477	1649.98572	-1144.83923	399.14572	1630.8949	-1007.02887	379.73868	1517.63831	-1062.401	331.88412	1242.63611	-1056.09521	523.86658	1455.47876	-1072.61157	580.04987	1286.05566	-1055.78308	327.06772	1346.22986	-991.01019	449.7984	1489.20972	-1242.15796	419.20645	1290.51697	-1325.10132	403.39322	1153.49146	-1339.07324	394.63675	1024.99072	-1364.16699	435.90027	889.80713	-1350.85266	388.4129	903.00006	-1378.44128	394.41675	836.32343	-1387.50244	462.21445	1494.74902	-876.16315	456.21979	1304.13586	-786.52094	489.53702	1160.12817	-767.41302	550.4931	1053.58911	-755.73871	629.87659	946.5528	-785.94525	589.86444	929.41339	-748.6452	643.51715	879.99731	-753.93079	592.1344	1004.50958	-1180.18091	561.90961	966.39496	-929.94696	372.30661	1026.71484	-1124.45447	354.81134	1018.32104	-1010.16241	585.39893	691.05347	-1244.4209	581.23822	486.59891	-1216.82458	543.96167	294.89932	-1228.65796	555.68311	73.15474	-1191.89966	512.86707	44.56038	-1148.65845	713.36725	38.63505	-1175.78931	468.00302	659.8645	-857.48987	468.49515	461.61816	-858.86188	319.38235	356.4368	-865.45599	176.65448	232.19395	-910.53552	127.99527	215.62073	-977.85596	220.18608	78.1297	-879.1944	418.91971	1795.46887	-1050.59302	NaN	NaN	NaN	NaN	NaN	NaN
170	1.69	555.19	1749.99182	-1117.68896	531.4021	1734.95496	-975.18158	444.14081	1651.62952	-1146.03137	409.23398	1632.66174	-1007.61346	389.76544	1519.65503	-1064.17908	341.77383	1244.49194	-1058.88135	533.66797	1457.32593	-1073.54968	589.63763	1287.79004	-1056.65515	336.28687	1347.98254	-993.71509	461.11194	1491.21729	-1243.66394	433.25702	1292.17126	-1327.50317	419.26038	1154.91943	-1342.27368	413.19614	1026.41589	-1367.22815	457.09601	892.01465	-1353.05591	409.6701	904.22382	-1381.23596	417.50769	837.84277	-1390.6853	470.91965	1496.12146	-877.32941	464.0293	1305.42859	-788.22095	497.2348	1161.12244	-769.4566	557.20251	1054.23987	-757.42444	635.86957	946.34723	-787.29449	595.61365	929.80579	-749.98889	648.40143	879.3504	-755.45874	601.7124	1004.89252	-1180.93958	570.21063	968.97125	-929.69354	381.8457	1028.75366	-1127.18579	363.36746	1020.34381	-1013.43536	590.74945	691.15161	-1244.9613	584.07471	486.38699	-1217.73877	545.51935	294.80173	-1229.36304	555.73669	73.11745	-1191.95923	512.77948	44.54942	-1148.68762	713.28577	38.61684	-1175.72705	483.18304	662.06494	-858.51465	488.33087	464.38257	-860.37848	339.50204	359.0517	-868.62354	197.40096	234.10916	-914.56116	149.64569	215.76367	-982.30219	241.89404	81.80298	-878.80884	427.91113	1797.05688	-1051.79944	NaN	NaN	NaN	NaN	NaN	NaN
171	1.7	564.36395	1751.85327	-1118.83154	540.6615	1736.85461	-976.26819	453.56644	1653.06519	-1147.1189	418.36612	1634.34961	-1008.90332	399.57651	1521.45203	-1065.85156	351.49503	1246.25378	-1061.55884	543.42523	1459.03552	-1074.39465	599.1947	1289.34814	-1057.51709	345.72272	1349.4696	-996.5116	472.33618	1493.17212	-1244.98792	447.41809	1293.88	-1329.80688	435.23929	1156.41309	-1345.30261	432.22406	1027.57544	-1369.9198	478.85217	894.81451	-1355.36072	431.15546	905.33209	-1383.69409	440.97839	839.64819	-1393.62427	479.59641	1497.44641	-878.49036	471.49286	1306.35986	-790.1933	504.75809	1162.16089	-771.29901	563.9093	1054.88013	-758.90051	641.59467	946.13232	-788.33752	601.0368	930.00104	-751.14227	653.32928	878.71661	-756.68542	611.2605	1005.17804	-1181.62329	578.32397	971.56378	-929.55316	391.37122	1030.6604	-1129.87231	371.79941	1022.38818	-1016.59296	595.95819	690.97015	-1245.56116	586.52875	486.10416	-1218.55786	546.49371	294.77618	-1229.79102	555.7453	73.08134	-1191.95203	512.70691	44.59589	-1148.72632	713.27301	38.62452	-1175.70276	498.2153	664.10876	-859.46179	507.81348	467.37134	-861.38824	359.36127	361.34427	-871.98346	218.7131	234.8055	-918.56537	172.53937	214.20984	-986.86694	264.75558	84.29514	-878.88824	436.82751	1798.59619	-1053.26697	NaN	NaN	NaN	NaN	NaN	NaN
172	1.71	573.44983	1753.62305	-1119.81482	549.94025	1739.12708	-977.586	463.00256	1654.5929	-1148.13037	428.19061	1635.52954	-1009.62415	409.41241	1523.14233	-1067.50403	361.19598	1247.88867	-1064.12854	553.17932	1460.59436	-1075.23743	608.61139	1290.69812	-1058.36743	355.24777	1350.72229	-999.06409	483.62799	1495.20728	-1246.36218	461.67941	1295.6062	-1331.82288	451.41678	1158.06189	-1348.29871	451.53952	1028.99231	-1372.64795	500.39212	897.41846	-1356.98035	452.96622	906.93359	-1386.15686	464.93652	841.75	-1396.34253	488.17337	1498.59924	-879.65515	479.03125	1307.50525	-792.06976	512.24237	1163.19592	-773.00323	570.4165	1055.40137	-760.20099	647.40363	945.85364	-789.24048	606.73865	930.42169	-752.06799	658.05725	878.19104	-757.65155	620.63031	1005.31903	-1182.28894	586.26746	974.19312	-929.6181	400.74844	1032.47571	-1132.34131	380.33618	1024.30615	-1019.50665	601.2132	690.8988	-1246.31873	588.60333	485.95459	-1219.40771	547.14301	294.8866	-1230.12402	555.7121	73.07952	-1191.90063	512.35742	44.90829	-1148.995	713.24011	38.632	-1175.65295	513.17401	666.31964	-860.17773	526.77399	469.9892	-862.80634	379.0972	363.11685	-875.23114	240.61592	234.50717	-922.52667	195.32916	211.75781	-991.09711	289.22977	86.06399	-878.85797	445.96414	1799.89978	-1053.98413	NaN	NaN	NaN	NaN	NaN	NaN
